<svg width="1440" height="1024" viewBox="0 0 1440 1024" fill="none" xmlns="http://www.w3.org/2000/svg">
<path opacity="0.05" d="M1433.54 -187.316C1349.55 -272.952 1250.23 -343.404 1140.25 -394.567C1135.73 -396.892 1131.22 -398.944 1126.57 -400.996C1104.95 -410.709 1083.06 -419.874 1060.77 -427.945C998.112 -450.654 932.586 -467.343 864.87 -477.193C817.538 -484.033 769.111 -487.863 719.863 -487.863C168.564 -487.863 -280 -39.2999 -280 512C-280 941.548 -7.77005 1308.58 373.352 1449.89C418.222 1466.45 464.46 1479.99 512.066 1489.98C579.234 1504.2 648.728 1511.86 720 1511.86C1099.75 1511.86 1430.81 1299 1600.03 986.282C1676.5 845.106 1720 683.409 1720 511.864C1720 239.771 1610.7 -7.15198 1433.82 -187.59L1433.54 -187.316ZM18.0849 1047.02C-100.109 891.207 -162.49 705.296 -162.49 509.4C-162.49 174.927 23.0096 -117.138 296.471 -269.122C303.721 -273.089 310.834 -263.513 304.815 -257.904C279.781 -234.375 255.841 -209.204 232.996 -182.391C74.446 2.97122 -16.7988 255.091 -17.6196 509.537C-17.6196 839.77 203.311 1196.27 560.219 1196.27C878.687 1196.27 1137.92 888.197 1137.92 509.537C1137.92 331.562 1078.28 160.7 976.361 34.0247C972.805 29.5103 977.045 23.2174 982.517 24.8589C1154.75 75.7482 1283.47 273.833 1283.47 509.674C1283.47 717.882 1207.96 925.133 1076.22 1078.35C939.699 1237.17 756.389 1324.72 560.219 1324.72C353.653 1324.72 155.841 1223.35 18.0849 1047.29V1047.02ZM1437.37 -27.8087C1555.43 127.595 1617.67 313.368 1617.54 509.127C1617.54 843.601 1432.04 1135.67 1158.58 1287.79C1151.33 1291.75 1144.21 1282.18 1150.23 1276.57C1175.27 1253.04 1199.21 1227.87 1222.05 1201.06C1380.6 1015.69 1471.85 763.573 1472.67 509.127C1472.67 178.895 1251.74 -177.603 894.829 -177.603C576.361 -177.603 317.127 130.468 317.127 509.127C317.127 687.103 376.772 857.964 478.687 984.777C482.244 989.291 478.003 995.584 472.531 993.943C300.301 943.053 171.573 745.105 171.573 509.4C171.573 301.193 247.086 93.9426 378.824 -59.1353C515.349 -217.959 698.659 -305.51 894.966 -305.51C1101.4 -305.51 1299.07 -204.279 1437.37 -27.8087ZM1033.41 509.4C1033.41 745.242 918.769 948.799 754.61 1040.18C734.227 1051.54 709.193 1050.03 690.315 1036.35L655.157 1010.77C511.108 905.707 421.642 713.505 421.642 509.127C421.642 273.286 536.279 69.7291 700.438 -21.6526C720.821 -33.0069 745.855 -31.5021 764.733 -17.8222L799.891 7.75909C943.94 112.821 1033.41 305.024 1033.41 509.264V509.4Z" fill="#000062"/>
</svg>
