<svg width="32" height="32" viewBox="0 0 32 32" fill="none" xmlns="http://www.w3.org/2000/svg">
<style>path { fill: #0500E2; } @media (prefers-color-scheme: dark) { path { fill: #FFFFFF; } }</style>
<path d="M 26.966604,5.4949556 C 25.676408,4.2084923 24.150197,3.1515404 22.459797,2.3820509 22.391152,2.3475057 22.321183,2.3160432 22.24896,2.2864848 21.916737,2.141413 21.581069,2.003258 21.237052,1.8812033 20.274706,1.5392483 19.267568,1.2897895 18.227036,1.1412593 17.499512,1.0376365 16.756218,0.98160255 15.999937,0.98160255 c -8.4720796,0 -15.36498129,6.73701935 -15.36498129,15.01839345 0,6.451422 4.18404649,11.964928 10.03881529,14.086604 0.688696,0.249472 1.400583,0.451277 2.131288,0.602825 1.031123,0.21424 2.099484,0.329002 3.194481,0.329002 5.835964,0 10.921875,-3.197409 13.52241,-7.89385 1.174376,-2.121158 1.842664,-4.547873 1.842664,-7.124581 0,-4.086234 -1.680064,-7.7943473 -4.398407,-10.5050404 z M 5.2179214,24.034644 C 3.4023309,21.693935 2.4427012,18.901432 2.4427012,15.958935 c 0,-5.024537 2.8498279,-9.4100973 7.0523209,-11.6940201 0.1111827,-0.060645 0.2210402,0.083662 0.1284101,0.1688662 C 9.2393948,4.7872512 8.871127,5.1648913 8.5188939,5.567103 6.0833175,8.3514718 4.680004,12.137976 4.6678256,15.958935 c 0,4.960809 3.3948086,10.315125 8.8797324,10.315125 4.894688,0 8.876459,-4.627402 8.876459,-10.315125 0,-2.672301 -0.916363,-5.238388 -2.481534,-7.1427152 -0.05526,-0.067096 0.01034,-0.1622991 0.09475,-0.1380773 2.645591,0.7648653 4.624086,3.7388375 4.624086,7.2807925 0,3.127075 -1.160593,6.240032 -3.184674,8.541622 -2.097894,2.385137 -4.914036,3.699721 -7.929087,3.700886 -3.175399,0 -6.2140516,-1.521829 -8.3300209,-4.166411 z M 27.025442,7.8913221 c 1.81404,2.3349439 2.771351,5.1231729 2.768568,8.0648929 0,5.024148 -2.849801,9.41011 -7.052613,11.694085 -0.111182,0.06062 -0.221172,-0.08368 -0.12841,-0.168905 0.383905,-0.353483 0.752306,-0.731447 1.104406,-1.133374 2.435683,-2.783954 3.838917,-6.570847 3.851108,-10.391806 0,-4.960809 -3.394848,-10.3150347 -8.879639,-10.3150347 -4.894821,0 -8.8765916,4.6273117 -8.8765916,10.3150347 0,2.672301 0.9168926,5.238777 2.4819316,7.143104 0.05499,0.0671 -0.0102,0.162299 -0.09462,0.138207 -2.6461214,-0.764607 -4.6246031,-3.737802 -4.6246031,-7.278202 0,-3.126298 1.1607126,-6.2388663 3.1851911,-8.5396796 2.098689,-2.3856157 4.915494,-3.6997074 7.931738,-3.6997074 3.173013,0 6.210592,1.52056 8.33393,4.1713851 z m -6.20728,8.0676129 c 0,3.542732 -1.760635,6.599991 -4.284177,7.972863 -0.31261,0.169941 -0.697707,0.148828 -0.987127,-0.05725 L 15.006979,23.48959 c -2.213317,-1.578433 -3.588324,-4.465363 -3.588324,-7.533373 0,-3.542343 1.760502,-6.5996026 4.284442,-7.9723967 0.313008,-0.170019 0.698238,-0.1489058 0.987127,0.057187 l 0.539481,0.3849456 c 2.21345,1.5785631 3.588457,4.4649741 3.588457,7.5333731 z" />
</svg>